# xmcd
#
# Track frame offsets:
#	150
#	14055
#	30811
#	46017
#	60380
#	75776
#	90694
#	103400
#	117826
#	129660
#	144956
#	159364
#	173271
#	186026
#	196291
#	215844
#
# Disc length: 3167 seconds
#
# Revision: 0
# Processed by: cddbd v1.4PL0 Copyright (c) Steve Scherf et al.
# Submitted via: dBpowerAMP V4.0
#
DISCID=c30c5d10
DTITLE=Daniel O`Donnell - Live, Laugh , Love
DYEAR=2001
DGENRE=Easy Listening
TTITLE0=Live,Laugh,Love
TTITLE1=Somewhere Under The Sun
TTITLE2=Green, Green Grass Of Home
TTITLE3=On The Other Hand
TTITLE4=Waltz Across Texas
TTITLE5=Among The Wicklow Hills
TTITLE6=Only This Moment In Mine
TTITLE7=All I Want Is You
TTITLE8=Don`t Say Love
TTITLE9=One More Time
TTITLE10=I Can`t See Me Without You
TTITLE11=Rosa Rio
TTITLE12=I Will Think Of You
TTITLE13=Thank You For Loving Me
TTITLE14=Roads Of Kildare
TTITLE15=Belfast
EXTD=
EXTT0=
EXTT1=
EXTT2=
EXTT3=
EXTT4=
EXTT5=
EXTT6=
EXTT7=
EXTT8=
EXTT9=
EXTT10=
EXTT11=
EXTT12=
EXTT13=
EXTT14=
EXTT15=
PLAYORDER=
